<mxfile host="app.diagrams.net" agent="Mozilla/5.0 (Macintosh; Intel Mac OS X 10_15_7) AppleWebKit/537.36 (KHTML, like Gecko) Chrome/138.0.0.0 Safari/537.36 Edg/138.0.0.0" version="27.2.0">
  <diagram name="Page-1" id="TTOINMGi2NqPr9OfE1XP">
    <mxGraphModel grid="1" page="1" gridSize="10" guides="1" tooltips="1" connect="1" arrows="1" fold="1" pageScale="1" pageWidth="850" pageHeight="1100" math="0" shadow="0">
      <root>
        <mxCell id="0" />
        <mxCell id="1" parent="0" />
        <mxCell id="uG7SCsLiVJFaCYVRm5TM-44" style="edgeStyle=orthogonalEdgeStyle;rounded=0;orthogonalLoop=1;jettySize=auto;html=1;" edge="1" parent="1" source="uG7SCsLiVJFaCYVRm5TM-11" target="uG7SCsLiVJFaCYVRm5TM-32">
          <mxGeometry relative="1" as="geometry" />
        </mxCell>
        <mxCell id="uG7SCsLiVJFaCYVRm5TM-11" value="Event" style="swimlane;fontStyle=1;align=center;verticalAlign=top;childLayout=stackLayout;horizontal=1;startSize=26;horizontalStack=0;resizeParent=1;resizeParentMax=0;resizeLast=0;collapsible=1;marginBottom=0;whiteSpace=wrap;html=1;" vertex="1" parent="1">
          <mxGeometry x="580" y="462" width="190" height="248" as="geometry">
            <mxRectangle x="810" y="390" width="70" height="30" as="alternateBounds" />
          </mxGeometry>
        </mxCell>
        <mxCell id="uG7SCsLiVJFaCYVRm5TM-12" value="&lt;div&gt;&lt;div&gt;+ Id: Guid&amp;nbsp;&amp;nbsp;&lt;/div&gt;&lt;div&gt;+ Title: string&amp;nbsp;&amp;nbsp;&lt;/div&gt;&lt;div&gt;+ Description: string&amp;nbsp;&amp;nbsp;&lt;/div&gt;&lt;div&gt;+ EventDate: DateTime&amp;nbsp;&amp;nbsp;&lt;/div&gt;&lt;div&gt;+ EventStatus: EventStatus&amp;nbsp;&amp;nbsp;&lt;/div&gt;&lt;div&gt;+ EventType: EventType&amp;nbsp;&amp;nbsp;&lt;/div&gt;&lt;div&gt;+ Category: EventCategory&amp;nbsp;&amp;nbsp;&lt;/div&gt;&lt;div&gt;+ IsDeleted: bool&amp;nbsp;&amp;nbsp;&lt;/div&gt;&lt;div&gt;+ CreatedAt: DateTime&amp;nbsp;&amp;nbsp;&lt;/div&gt;&lt;div&gt;+ UpdatedAt: DateTime?&amp;nbsp;&amp;nbsp;&lt;/div&gt;&lt;div&gt;+ ManagerId: Guid?&amp;nbsp;&amp;nbsp;&lt;/div&gt;&lt;div&gt;+ CityId: Guid&amp;nbsp;&amp;nbsp;&lt;/div&gt;&lt;/div&gt;&lt;div&gt;&lt;br&gt;&lt;/div&gt;" style="text;strokeColor=none;fillColor=none;align=left;verticalAlign=top;spacingLeft=4;spacingRight=4;overflow=hidden;rotatable=0;points=[[0,0.5],[1,0.5]];portConstraint=eastwest;whiteSpace=wrap;html=1;" vertex="1" parent="uG7SCsLiVJFaCYVRm5TM-11">
          <mxGeometry y="26" width="190" height="214" as="geometry" />
        </mxCell>
        <mxCell id="uG7SCsLiVJFaCYVRm5TM-13" value="" style="line;strokeWidth=1;fillColor=none;align=left;verticalAlign=middle;spacingTop=-1;spacingLeft=3;spacingRight=3;rotatable=0;labelPosition=right;points=[];portConstraint=eastwest;strokeColor=inherit;" vertex="1" parent="uG7SCsLiVJFaCYVRm5TM-11">
          <mxGeometry y="240" width="190" height="8" as="geometry" />
        </mxCell>
        <mxCell id="uG7SCsLiVJFaCYVRm5TM-17" value="User" style="swimlane;fontStyle=0;childLayout=stackLayout;horizontal=1;startSize=26;fillColor=none;horizontalStack=0;resizeParent=1;resizeParentMax=0;resizeLast=0;collapsible=1;marginBottom=0;whiteSpace=wrap;html=1;" vertex="1" parent="1">
          <mxGeometry x="450" y="110" width="180" height="200" as="geometry">
            <mxRectangle x="470" y="160" width="70" height="30" as="alternateBounds" />
          </mxGeometry>
        </mxCell>
        <mxCell id="uG7SCsLiVJFaCYVRm5TM-18" value="&lt;div&gt;&lt;span style=&quot;background-color: transparent; color: light-dark(rgb(0, 0, 0), rgb(255, 255, 255));&quot;&gt;+ Id: Guid&amp;nbsp;&amp;nbsp;&lt;/span&gt;&lt;br&gt;&lt;span style=&quot;background-color: transparent; color: light-dark(rgb(0, 0, 0), rgb(255, 255, 255));&quot;&gt;+ Email: string&amp;nbsp;&amp;nbsp;&lt;/span&gt;&lt;br&gt;&lt;span style=&quot;background-color: transparent; color: light-dark(rgb(0, 0, 0), rgb(255, 255, 255));&quot;&gt;+ Username: string&amp;nbsp;&amp;nbsp;&lt;/span&gt;&lt;br&gt;&lt;span style=&quot;background-color: transparent; color: light-dark(rgb(0, 0, 0), rgb(255, 255, 255));&quot;&gt;+ PasswordHash: string&amp;nbsp;&amp;nbsp;&lt;/span&gt;&lt;br&gt;&lt;span style=&quot;background-color: transparent; color: light-dark(rgb(0, 0, 0), rgb(255, 255, 255));&quot;&gt;+ Role: UserRole&amp;nbsp;&amp;nbsp;&lt;/span&gt;&lt;br&gt;&lt;span style=&quot;background-color: transparent; color: light-dark(rgb(0, 0, 0), rgb(255, 255, 255));&quot;&gt;+ IsDeleted: bool&amp;nbsp;&amp;nbsp;&lt;/span&gt;&lt;br&gt;&lt;span style=&quot;background-color: transparent; color: light-dark(rgb(0, 0, 0), rgb(255, 255, 255));&quot;&gt;+ CreatedAt: DateTime&amp;nbsp;&amp;nbsp;&lt;/span&gt;&lt;br&gt;&lt;span style=&quot;background-color: transparent; color: light-dark(rgb(0, 0, 0), rgb(255, 255, 255));&quot;&gt;+ UpdatedAt: DateTime?&amp;nbsp;&amp;nbsp;&lt;/span&gt;&lt;br&gt;&lt;span style=&quot;background-color: transparent; color: light-dark(rgb(0, 0, 0), rgb(255, 255, 255));&quot;&gt;+ RefreshToken: string?&amp;nbsp;&amp;nbsp;&lt;/span&gt;&lt;br&gt;&lt;span style=&quot;background-color: transparent; color: light-dark(rgb(0, 0, 0), rgb(255, 255, 255));&quot;&gt;+ RefreshTokenExpiryTime: DateTime&amp;nbsp;&amp;nbsp;&lt;/span&gt;&lt;/div&gt;&lt;div&gt;&lt;br&gt;&lt;/div&gt;" style="text;strokeColor=none;fillColor=none;align=left;verticalAlign=top;spacingLeft=4;spacingRight=4;overflow=hidden;rotatable=0;points=[[0,0.5],[1,0.5]];portConstraint=eastwest;whiteSpace=wrap;html=1;" vertex="1" parent="uG7SCsLiVJFaCYVRm5TM-17">
          <mxGeometry y="26" width="180" height="174" as="geometry" />
        </mxCell>
        <mxCell id="uG7SCsLiVJFaCYVRm5TM-21" value="Ticket" style="swimlane;fontStyle=0;childLayout=stackLayout;horizontal=1;startSize=26;fillColor=none;horizontalStack=0;resizeParent=1;resizeParentMax=0;resizeLast=0;collapsible=1;marginBottom=0;whiteSpace=wrap;html=1;" vertex="1" parent="1">
          <mxGeometry x="1220" y="470" width="140" height="170" as="geometry">
            <mxRectangle x="1070" y="380" width="70" height="30" as="alternateBounds" />
          </mxGeometry>
        </mxCell>
        <mxCell id="uG7SCsLiVJFaCYVRm5TM-22" value="&lt;div&gt;+ Id: Guid&amp;nbsp;&amp;nbsp;&lt;/div&gt;&lt;div&gt;+ UserId: Guid&amp;nbsp;&amp;nbsp;&lt;/div&gt;&lt;div&gt;+ EventId: Guid&amp;nbsp;&amp;nbsp;&lt;/div&gt;&lt;div&gt;+ TicketTypeId: Guid&amp;nbsp;&amp;nbsp;&lt;/div&gt;&lt;div&gt;+ BookedQuantity: int&amp;nbsp;&amp;nbsp;&lt;/div&gt;&lt;div&gt;+ TotalPrice: decimal&amp;nbsp;&amp;nbsp;&lt;/div&gt;&lt;div&gt;+ Status: TicketStatus&amp;nbsp;&amp;nbsp;&lt;/div&gt;&lt;div&gt;+ BookedAt: DateTime&amp;nbsp;&amp;nbsp;&lt;/div&gt;&lt;div&gt;+ PaymentId: Guid?&amp;nbsp;&amp;nbsp;&lt;/div&gt;&lt;div&gt;&lt;br&gt;&lt;/div&gt;" style="text;strokeColor=none;fillColor=none;align=left;verticalAlign=top;spacingLeft=4;spacingRight=4;overflow=hidden;rotatable=0;points=[[0,0.5],[1,0.5]];portConstraint=eastwest;whiteSpace=wrap;html=1;" vertex="1" parent="uG7SCsLiVJFaCYVRm5TM-21">
          <mxGeometry y="26" width="140" height="144" as="geometry" />
        </mxCell>
        <mxCell id="uG7SCsLiVJFaCYVRm5TM-25" value="BookedSeats" style="swimlane;fontStyle=0;childLayout=stackLayout;horizontal=1;startSize=26;fillColor=none;horizontalStack=0;resizeParent=1;resizeParentMax=0;resizeLast=0;collapsible=1;marginBottom=0;whiteSpace=wrap;html=1;" vertex="1" parent="1">
          <mxGeometry x="760" y="860" width="240" height="140" as="geometry">
            <mxRectangle x="890" y="130" width="110" height="30" as="alternateBounds" />
          </mxGeometry>
        </mxCell>
        <mxCell id="uG7SCsLiVJFaCYVRm5TM-26" value="&lt;div&gt;+ Id: Guid&amp;nbsp;&amp;nbsp;&lt;/div&gt;&lt;div&gt;+ EventId: Guid&amp;nbsp;&amp;nbsp;&lt;/div&gt;&lt;div&gt;+ TicketId: Guid&amp;nbsp;&amp;nbsp;&lt;/div&gt;&lt;div&gt;+ SeatNumber: int&amp;nbsp;&amp;nbsp;&lt;/div&gt;&lt;div&gt;+ BookedSeatStatus: BookedSeatStatus&amp;nbsp;&amp;nbsp;&lt;/div&gt;&lt;div&gt;+ BookedAt: DateTime&amp;nbsp;&amp;nbsp;&lt;/div&gt;&lt;div&gt;&lt;br&gt;&lt;/div&gt;" style="text;strokeColor=none;fillColor=none;align=left;verticalAlign=top;spacingLeft=4;spacingRight=4;overflow=hidden;rotatable=0;points=[[0,0.5],[1,0.5]];portConstraint=eastwest;whiteSpace=wrap;html=1;" vertex="1" parent="uG7SCsLiVJFaCYVRm5TM-25">
          <mxGeometry y="26" width="240" height="114" as="geometry" />
        </mxCell>
        <mxCell id="uG7SCsLiVJFaCYVRm5TM-27" value="TicketType" style="swimlane;fontStyle=0;childLayout=stackLayout;horizontal=1;startSize=26;fillColor=none;horizontalStack=0;resizeParent=1;resizeParentMax=0;resizeLast=0;collapsible=1;marginBottom=0;whiteSpace=wrap;html=1;" vertex="1" parent="1">
          <mxGeometry x="1390" y="758" width="170" height="210" as="geometry">
            <mxRectangle x="1450" y="390" width="100" height="30" as="alternateBounds" />
          </mxGeometry>
        </mxCell>
        <mxCell id="uG7SCsLiVJFaCYVRm5TM-28" value="&lt;div&gt;+ Id: Guid&amp;nbsp;&amp;nbsp;&lt;/div&gt;&lt;div&gt;+ EventId: Guid&amp;nbsp;&amp;nbsp;&lt;/div&gt;&lt;div&gt;+ TypeName: TicketTypeEnum&amp;nbsp;&amp;nbsp;&lt;/div&gt;&lt;div&gt;+ Price: decimal&amp;nbsp;&amp;nbsp;&lt;/div&gt;&lt;div&gt;+ TotalQuantity: int&amp;nbsp;&amp;nbsp;&lt;/div&gt;&lt;div&gt;+ BookedQuantity: int&amp;nbsp;&amp;nbsp;&lt;/div&gt;&lt;div&gt;+ Description: string?&amp;nbsp;&amp;nbsp;&lt;/div&gt;&lt;div&gt;+ CreatedAt: DateTime&amp;nbsp;&amp;nbsp;&lt;/div&gt;&lt;div&gt;+ UpdatedAt: DateTime?&amp;nbsp;&amp;nbsp;&lt;/div&gt;&lt;div&gt;+ IsDeleted: bool&amp;nbsp;&amp;nbsp;&lt;/div&gt;&lt;div&gt;&lt;br&gt;&lt;/div&gt;" style="text;strokeColor=none;fillColor=none;align=left;verticalAlign=top;spacingLeft=4;spacingRight=4;overflow=hidden;rotatable=0;points=[[0,0.5],[1,0.5]];portConstraint=eastwest;whiteSpace=wrap;html=1;" vertex="1" parent="uG7SCsLiVJFaCYVRm5TM-27">
          <mxGeometry y="26" width="170" height="184" as="geometry" />
        </mxCell>
        <mxCell id="uG7SCsLiVJFaCYVRm5TM-29" value="EventImage" style="swimlane;fontStyle=0;childLayout=stackLayout;horizontal=1;startSize=26;fillColor=none;horizontalStack=0;resizeParent=1;resizeParentMax=0;resizeLast=0;collapsible=1;marginBottom=0;whiteSpace=wrap;html=1;" vertex="1" parent="1">
          <mxGeometry x="100" y="380" width="150" height="150" as="geometry">
            <mxRectangle x="100" y="380" width="100" height="30" as="alternateBounds" />
          </mxGeometry>
        </mxCell>
        <mxCell id="uG7SCsLiVJFaCYVRm5TM-30" value="&lt;div&gt;+ Id: Guid&amp;nbsp;&amp;nbsp;&lt;/div&gt;&lt;div&gt;+ FileName: string&amp;nbsp;&amp;nbsp;&lt;/div&gt;&lt;div&gt;+ FileType: string&amp;nbsp;&amp;nbsp;&lt;/div&gt;&lt;div&gt;+ FileContent: byte[]&amp;nbsp;&amp;nbsp;&lt;/div&gt;&lt;div&gt;+ UploadedAt: DateTime&amp;nbsp;&amp;nbsp;&lt;/div&gt;&lt;div&gt;+ EventId: Guid&amp;nbsp;&amp;nbsp;&lt;/div&gt;&lt;div&gt;&lt;br&gt;&lt;/div&gt;" style="text;strokeColor=none;fillColor=none;align=left;verticalAlign=top;spacingLeft=4;spacingRight=4;overflow=hidden;rotatable=0;points=[[0,0.5],[1,0.5]];portConstraint=eastwest;whiteSpace=wrap;html=1;" vertex="1" parent="uG7SCsLiVJFaCYVRm5TM-29">
          <mxGeometry y="26" width="150" height="124" as="geometry" />
        </mxCell>
        <mxCell id="uG7SCsLiVJFaCYVRm5TM-31" value="Cities" style="swimlane;fontStyle=0;childLayout=stackLayout;horizontal=1;startSize=26;fillColor=none;horizontalStack=0;resizeParent=1;resizeParentMax=0;resizeLast=0;collapsible=1;marginBottom=0;whiteSpace=wrap;html=1;" vertex="1" parent="1">
          <mxGeometry x="250" y="710" width="140" height="80" as="geometry">
            <mxRectangle x="640" y="540" width="70" height="30" as="alternateBounds" />
          </mxGeometry>
        </mxCell>
        <mxCell id="uG7SCsLiVJFaCYVRm5TM-32" value="&lt;div&gt;+ Id: Guid&amp;nbsp;&amp;nbsp;&lt;/div&gt;&lt;div&gt;+ CityName: string&amp;nbsp;&amp;nbsp;&lt;/div&gt;&lt;div&gt;+ StateName: string&amp;nbsp;&amp;nbsp;&lt;/div&gt;&lt;div&gt;&lt;br&gt;&lt;/div&gt;" style="text;strokeColor=none;fillColor=none;align=left;verticalAlign=top;spacingLeft=4;spacingRight=4;overflow=hidden;rotatable=0;points=[[0,0.5],[1,0.5]];portConstraint=eastwest;whiteSpace=wrap;html=1;" vertex="1" parent="uG7SCsLiVJFaCYVRm5TM-31">
          <mxGeometry y="26" width="140" height="54" as="geometry" />
        </mxCell>
        <mxCell id="uG7SCsLiVJFaCYVRm5TM-33" value="Payment" style="swimlane;fontStyle=0;childLayout=stackLayout;horizontal=1;startSize=26;fillColor=none;horizontalStack=0;resizeParent=1;resizeParentMax=0;resizeLast=0;collapsible=1;marginBottom=0;whiteSpace=wrap;html=1;" vertex="1" parent="1">
          <mxGeometry x="880" y="300" width="240" height="170" as="geometry">
            <mxRectangle x="1360" y="100" width="90" height="30" as="alternateBounds" />
          </mxGeometry>
        </mxCell>
        <mxCell id="uG7SCsLiVJFaCYVRm5TM-34" value="&lt;div&gt;+ Id: Guid&amp;nbsp;&amp;nbsp;&lt;/div&gt;&lt;div&gt;+ TicketId: Guid&amp;nbsp;&amp;nbsp;&lt;/div&gt;&lt;div&gt;+ Amount: decimal&amp;nbsp;&amp;nbsp;&lt;/div&gt;&lt;div&gt;+ PaymentType: PaymentTypeEnum&amp;nbsp;&amp;nbsp;&lt;/div&gt;&lt;div&gt;+ PaymentStatus: PaymentStatusEnum&amp;nbsp;&amp;nbsp;&lt;/div&gt;&lt;div&gt;+ TransactionId: Guid&amp;nbsp;&amp;nbsp;&lt;/div&gt;&lt;div&gt;+ PaidAt: DateTime&amp;nbsp;&amp;nbsp;&lt;/div&gt;&lt;div&gt;&lt;br&gt;&lt;/div&gt;" style="text;strokeColor=none;fillColor=none;align=left;verticalAlign=top;spacingLeft=4;spacingRight=4;overflow=hidden;rotatable=0;points=[[0,0.5],[1,0.5]];portConstraint=eastwest;whiteSpace=wrap;html=1;" vertex="1" parent="uG7SCsLiVJFaCYVRm5TM-33">
          <mxGeometry y="26" width="240" height="144" as="geometry" />
        </mxCell>
        <mxCell id="uG7SCsLiVJFaCYVRm5TM-40" style="edgeStyle=orthogonalEdgeStyle;rounded=0;orthogonalLoop=1;jettySize=auto;html=1;entryX=0.5;entryY=0;entryDx=0;entryDy=0;" edge="1" parent="1" source="uG7SCsLiVJFaCYVRm5TM-18" target="uG7SCsLiVJFaCYVRm5TM-21">
          <mxGeometry relative="1" as="geometry" />
        </mxCell>
        <mxCell id="uG7SCsLiVJFaCYVRm5TM-41" value="1" style="text;html=1;align=center;verticalAlign=middle;resizable=0;points=[];autosize=1;strokeColor=none;fillColor=none;" vertex="1" parent="1">
          <mxGeometry x="635" y="188" width="30" height="30" as="geometry" />
        </mxCell>
        <mxCell id="uG7SCsLiVJFaCYVRm5TM-42" value="&lt;font style=&quot;font-size: 23px;&quot;&gt;*&lt;/font&gt;" style="text;html=1;align=center;verticalAlign=middle;resizable=0;points=[];autosize=1;strokeColor=none;fillColor=none;" vertex="1" parent="1">
          <mxGeometry x="1300" y="422" width="30" height="40" as="geometry" />
        </mxCell>
        <mxCell id="uG7SCsLiVJFaCYVRm5TM-46" value="&lt;font style=&quot;font-size: 23px;&quot;&gt;*&lt;/font&gt;" style="text;html=1;align=center;verticalAlign=middle;resizable=0;points=[];autosize=1;strokeColor=none;fillColor=none;" vertex="1" parent="1">
          <mxGeometry x="680" y="710" width="30" height="40" as="geometry" />
        </mxCell>
        <mxCell id="uG7SCsLiVJFaCYVRm5TM-47" value="1" style="text;html=1;align=center;verticalAlign=middle;resizable=0;points=[];autosize=1;strokeColor=none;fillColor=none;" vertex="1" parent="1">
          <mxGeometry x="395" y="728" width="30" height="30" as="geometry" />
        </mxCell>
        <mxCell id="uG7SCsLiVJFaCYVRm5TM-48" style="edgeStyle=orthogonalEdgeStyle;rounded=0;orthogonalLoop=1;jettySize=auto;html=1;" edge="1" parent="1" source="uG7SCsLiVJFaCYVRm5TM-12" target="uG7SCsLiVJFaCYVRm5TM-30">
          <mxGeometry relative="1" as="geometry" />
        </mxCell>
        <mxCell id="uG7SCsLiVJFaCYVRm5TM-49" value="1" style="text;html=1;align=center;verticalAlign=middle;resizable=0;points=[];autosize=1;strokeColor=none;fillColor=none;" vertex="1" parent="1">
          <mxGeometry x="545" y="558" width="30" height="30" as="geometry" />
        </mxCell>
        <mxCell id="uG7SCsLiVJFaCYVRm5TM-51" value="&lt;font style=&quot;font-size: 23px;&quot;&gt;*&lt;/font&gt;" style="text;html=1;align=center;verticalAlign=middle;resizable=0;points=[];autosize=1;strokeColor=none;fillColor=none;" vertex="1" parent="1">
          <mxGeometry x="260" y="430" width="30" height="40" as="geometry" />
        </mxCell>
        <mxCell id="uG7SCsLiVJFaCYVRm5TM-52" style="edgeStyle=orthogonalEdgeStyle;rounded=0;orthogonalLoop=1;jettySize=auto;html=1;" edge="1" parent="1" source="uG7SCsLiVJFaCYVRm5TM-12" target="uG7SCsLiVJFaCYVRm5TM-28">
          <mxGeometry relative="1" as="geometry" />
        </mxCell>
        <mxCell id="uG7SCsLiVJFaCYVRm5TM-53" value="1" style="text;html=1;align=center;verticalAlign=middle;resizable=0;points=[];autosize=1;strokeColor=none;fillColor=none;" vertex="1" parent="1">
          <mxGeometry x="775" y="568" width="30" height="30" as="geometry" />
        </mxCell>
        <mxCell id="uG7SCsLiVJFaCYVRm5TM-54" value="&lt;font style=&quot;font-size: 23px;&quot;&gt;*&lt;/font&gt;" style="text;html=1;align=center;verticalAlign=middle;resizable=0;points=[];autosize=1;strokeColor=none;fillColor=none;" vertex="1" parent="1">
          <mxGeometry x="1350" y="843" width="30" height="40" as="geometry" />
        </mxCell>
        <mxCell id="uG7SCsLiVJFaCYVRm5TM-56" style="edgeStyle=orthogonalEdgeStyle;rounded=0;orthogonalLoop=1;jettySize=auto;html=1;entryX=0.594;entryY=0.008;entryDx=0;entryDy=0;entryPerimeter=0;" edge="1" parent="1" source="uG7SCsLiVJFaCYVRm5TM-53" target="uG7SCsLiVJFaCYVRm5TM-25">
          <mxGeometry relative="1" as="geometry" />
        </mxCell>
        <mxCell id="uG7SCsLiVJFaCYVRm5TM-57" value="&lt;font style=&quot;font-size: 23px;&quot;&gt;*&lt;/font&gt;" style="text;html=1;align=center;verticalAlign=middle;resizable=0;points=[];autosize=1;strokeColor=none;fillColor=none;" vertex="1" parent="1">
          <mxGeometry x="800" y="830" width="240" height="40" as="geometry" />
        </mxCell>
        <mxCell id="uG7SCsLiVJFaCYVRm5TM-58" style="edgeStyle=orthogonalEdgeStyle;rounded=0;orthogonalLoop=1;jettySize=auto;html=1;entryX=0.01;entryY=0.134;entryDx=0;entryDy=0;entryPerimeter=0;" edge="1" parent="1" target="uG7SCsLiVJFaCYVRm5TM-22">
          <mxGeometry relative="1" as="geometry">
            <mxPoint x="1080" y="600" as="sourcePoint" />
            <Array as="points">
              <mxPoint x="1080" y="620" />
              <mxPoint x="1150" y="620" />
              <mxPoint x="1150" y="515" />
            </Array>
          </mxGeometry>
        </mxCell>
        <mxCell id="uG7SCsLiVJFaCYVRm5TM-61" value="&lt;font style=&quot;font-size: 23px;&quot;&gt;*&lt;/font&gt;" style="text;html=1;align=center;verticalAlign=middle;resizable=0;points=[];autosize=1;strokeColor=none;fillColor=none;" vertex="1" parent="1">
          <mxGeometry x="1180" y="480" width="30" height="40" as="geometry" />
        </mxCell>
        <mxCell id="uG7SCsLiVJFaCYVRm5TM-62" style="edgeStyle=orthogonalEdgeStyle;rounded=0;orthogonalLoop=1;jettySize=auto;html=1;" edge="1" parent="1" source="uG7SCsLiVJFaCYVRm5TM-22" target="uG7SCsLiVJFaCYVRm5TM-27">
          <mxGeometry relative="1" as="geometry" />
        </mxCell>
        <mxCell id="uG7SCsLiVJFaCYVRm5TM-63" value="1" style="text;html=1;align=center;verticalAlign=middle;resizable=0;points=[];autosize=1;strokeColor=none;fillColor=none;" vertex="1" parent="1">
          <mxGeometry x="1480" y="720" width="30" height="30" as="geometry" />
        </mxCell>
        <mxCell id="uG7SCsLiVJFaCYVRm5TM-66" value="&lt;font style=&quot;font-size: 23px;&quot;&gt;*&lt;/font&gt;" style="text;html=1;align=center;verticalAlign=middle;resizable=0;points=[];autosize=1;strokeColor=none;fillColor=none;" vertex="1" parent="1">
          <mxGeometry x="1370" y="530" width="30" height="40" as="geometry" />
        </mxCell>
        <mxCell id="uG7SCsLiVJFaCYVRm5TM-68" style="edgeStyle=orthogonalEdgeStyle;rounded=0;orthogonalLoop=1;jettySize=auto;html=1;entryX=0.428;entryY=1.132;entryDx=0;entryDy=0;entryPerimeter=0;" edge="1" parent="1" source="uG7SCsLiVJFaCYVRm5TM-22" target="uG7SCsLiVJFaCYVRm5TM-57">
          <mxGeometry relative="1" as="geometry">
            <Array as="points">
              <mxPoint x="903" y="568" />
            </Array>
          </mxGeometry>
        </mxCell>
        <mxCell id="uG7SCsLiVJFaCYVRm5TM-70" style="edgeStyle=orthogonalEdgeStyle;rounded=0;orthogonalLoop=1;jettySize=auto;html=1;" edge="1" parent="1" source="uG7SCsLiVJFaCYVRm5TM-69" target="uG7SCsLiVJFaCYVRm5TM-34">
          <mxGeometry relative="1" as="geometry">
            <Array as="points">
              <mxPoint x="1200" y="540" />
              <mxPoint x="1000" y="540" />
            </Array>
          </mxGeometry>
        </mxCell>
        <mxCell id="uG7SCsLiVJFaCYVRm5TM-69" value="1" style="text;html=1;align=center;verticalAlign=middle;resizable=0;points=[];autosize=1;strokeColor=none;fillColor=none;" vertex="1" parent="1">
          <mxGeometry x="1185" y="568" width="30" height="30" as="geometry" />
        </mxCell>
        <mxCell id="uG7SCsLiVJFaCYVRm5TM-71" value="&lt;font style=&quot;font-size: 23px;&quot;&gt;*&lt;/font&gt;" style="text;html=1;align=center;verticalAlign=middle;resizable=0;points=[];autosize=1;strokeColor=none;fillColor=none;" vertex="1" parent="1">
          <mxGeometry x="960" y="480" width="30" height="40" as="geometry" />
        </mxCell>
      </root>
    </mxGraphModel>
  </diagram>
</mxfile>
